<svg width="1024" height="1024" viewBox="0 0 1024 1024" fill="none" xmlns="http://www.w3.org/2000/svg">
<path d="M512 17.3442C785.191 17.3442 1006.66 238.809 1006.66 512C1006.66 785.191 785.191 1006.66 512 1006.66C238.809 1006.66 17.3442 785.191 17.3442 512C17.3442 238.809 238.809 17.3442 512 17.3442Z" fill="#ADA7FB" stroke="black" stroke-width="25"/>
<path d="M799.22 910.916H274.038L253.225 928.26C302.02 949.535 421.672 995.556 509.919 1009.43C598.166 1023.31 739.556 949.535 799.22 910.916Z" fill="#88725D" stroke="#88725D" stroke-width="5"/>
<path d="M471.762 910.222L468.986 866.515" stroke="#88725D" stroke-width="5"/>
<path d="M595.252 869.984L667.734 685.442L889.409 695.569L788.648 911.61H466.211L468.293 872.759L595.252 869.984Z" fill="#CDC0A5" stroke="black" stroke-width="11"/>
<path d="M706.928 468.986C639.309 460.475 552.098 391.394 542.526 356.596L672.819 412.791L746.493 426.013L706.928 468.986Z" fill="#F1F1F1"/>
<path d="M329.539 786.732C314.276 856.108 305.951 856.802 294.157 879.696L273.344 911.61H471.762V871.371C405.16 805.88 349.196 787.657 329.539 786.732Z" fill="#536A18" stroke="black" stroke-width="6" stroke-linecap="round" stroke-linejoin="round"/>
<path d="M89.4959 755.512C142.454 659.541 259.469 466.211 303.87 460.661C338.836 435.686 353.589 406.316 356.596 394.753C392.672 322.14 485.914 182.599 570.276 205.355C675.729 233.799 745.799 306.645 754.125 324.683C762.45 342.721 764.531 409.322 748.575 423.198C735.809 434.298 705.329 427.822 691.686 423.198C648.21 409.091 546.94 352.836 545.301 360.759C543.682 365.615 543.775 379.491 557.095 396.141C561.106 399.916 595.474 438.243 623.003 454.417C660.219 476.285 692.952 475.11 696.542 478.699C663.935 500.9 623.003 497.431 559.176 471.068C529.806 450.717 468.709 429.164 459.274 505.756C447.48 601.496 515.469 579.989 532.813 625.084C546.688 661.16 572.358 682.667 583.458 688.911C593.402 702.324 615.371 734.283 623.696 754.818C634.103 780.488 606.352 806.851 593.865 806.851C581.377 806.851 581.377 804.076 559.176 780.488C549.741 773.828 535.82 743.486 530.038 729.149C524.95 719.668 512.139 697.93 501.594 686.829C492.566 677.326 484.249 656.638 479.868 643.48C484.639 660.844 487.024 687.511 487.024 693.073C487.024 701.849 471.53 751.581 468.293 777.713C496.737 789.507 541.138 843.621 549.463 871.371H471.762C405.16 805.88 349.196 787.657 329.539 786.732C321.214 856.108 278.663 912.304 256.694 931.729C158.456 887.883 104.296 795.982 89.4959 755.512Z" fill="#7C992F"/>
<path d="M329.539 786.732C321.214 856.108 278.663 912.304 256.694 931.729C158.456 887.883 104.296 795.982 89.4959 755.512C142.454 659.541 259.469 466.211 303.87 460.661C338.836 435.686 353.589 406.316 356.596 394.753C392.672 322.14 485.914 182.599 570.276 205.355C675.729 233.799 745.799 306.645 754.125 324.683C762.45 342.721 764.531 409.322 748.575 423.198C735.809 434.298 705.329 427.822 691.686 423.198C648.21 409.091 546.94 352.836 545.301 360.759C543.682 365.615 543.775 379.491 557.095 396.141C561.106 399.916 595.474 438.243 623.003 454.417C660.219 476.285 692.952 475.11 696.542 478.699C663.935 500.9 623.003 497.431 559.176 471.068C529.806 450.717 468.709 429.164 459.274 505.756C447.48 601.496 515.469 579.989 532.813 625.084C546.688 661.16 572.358 682.667 583.458 688.911C593.402 702.324 615.371 734.283 623.696 754.818C634.103 780.488 606.352 806.851 593.865 806.851C581.377 806.851 581.377 804.076 559.176 780.488C549.741 773.828 535.82 743.486 530.038 729.149C524.95 719.668 512.139 697.93 501.594 686.829C491.048 675.729 481.474 649.366 478.005 637.572C484.018 653.991 487.024 686.829 487.024 693.073C487.024 701.849 471.53 751.581 468.293 777.713M329.539 786.732C308.495 768.232 262.521 718.465 246.981 667.404M329.539 786.732C349.196 787.657 405.16 805.88 471.762 871.371H549.463C541.138 843.621 496.737 789.507 468.293 777.713M468.293 777.713C441.309 766.525 411.172 735.855 400.304 720.824C400.304 720.824 380.882 715.196 367.003 700.705C345.965 678.739 329.539 625.084 329.539 625.084" stroke="black" stroke-width="10" stroke-linecap="round" stroke-linejoin="round"/>
<path d="M611.209 255.306C620.788 255.306 628.553 263.071 628.553 272.65C628.553 282.229 620.788 289.995 611.209 289.995C601.63 289.995 593.865 282.229 593.865 272.65C593.865 263.071 601.63 255.306 611.209 255.306Z" fill="black"/>
<path d="M611.902 266.406C615.734 266.406 618.84 269.513 618.84 273.344C618.84 277.176 615.734 280.282 611.902 280.282C608.071 280.282 604.965 277.176 604.965 273.344C604.965 269.513 608.071 266.406 611.902 266.406Z" fill="#9F7D96"/>
<path d="M703.48 455.111C706.717 456.267 710.417 462.326 699.317 477.312C635.49 473.843 572.598 411.142 569.583 408.629C565.42 405.16 548.076 380.878 548.77 372.553C550.99 376.438 613.641 424.214 650.753 439.154C670.71 447.188 703.48 455.111 703.48 455.111Z" fill="#BC3227" stroke="black" stroke-width="5"/>
<path d="M512 17.3442C785.191 17.3442 1006.66 238.809 1006.66 512C1006.66 785.191 785.191 1006.66 512 1006.66C238.809 1006.66 17.3442 785.191 17.3442 512C17.3442 238.809 238.809 17.3442 512 17.3442Z" stroke="black" stroke-width="25"/>
<path d="M512 17.3442C785.191 17.3442 1006.66 238.809 1006.66 512C1006.66 785.191 785.191 1006.66 512 1006.66C238.809 1006.66 17.3442 785.191 17.3442 512C17.3442 238.809 238.809 17.3442 512 17.3442Z" stroke="black" stroke-width="25"/>
</svg>
